<?xml version="1.0" encoding="UTF-8" standalone="no"?>
<!DOCTYPE svg PUBLIC "-//W3C//DTD SVG 1.1//EN"
 "http://www.w3.org/Graphics/SVG/1.1/DTD/svg11.dtd">
<!-- Generated by graphviz version 2.40.1 (20161225.0304)
 -->
<!-- Title: dependencies Pages: 1 -->
<svg width="2821pt" height="360pt"
 viewBox="0.00 0.00 2821.00 360.00" xmlns="http://www.w3.org/2000/svg" xmlns:xlink="http://www.w3.org/1999/xlink">
<g id="graph0" class="graph" transform="scale(1 1) rotate(0) translate(4 356)">
<title>dependencies</title>
<polygon fill="#ffffff" stroke="transparent" points="-4,4 -4,-356 2817,-356 2817,4 -4,4"/>
<text text-anchor="start" x="1385.5091" y="-42.4" font-family="sans-serif" font-weight="bold" font-size="14.00" fill="#000000">Legend</text>
<polygon fill="#ffffb3" stroke="transparent" points="1172.5,-10 1172.5,-30 1192.5,-30 1192.5,-10 1172.5,-10"/>
<text text-anchor="start" x="1196.129" y="-15.4" font-family="sans-serif" font-size="14.00" fill="#000000"> &#160;Declarations</text>
<polygon fill="#8dd3c7" stroke="transparent" points="1285.5,-10 1285.5,-30 1305.5,-30 1305.5,-10 1285.5,-10"/>
<text text-anchor="start" x="1309.2251" y="-15.4" font-family="sans-serif" font-size="14.00" fill="#000000"> &#160;Module</text>
<polygon fill="#80b1d3" stroke="transparent" points="1371.5,-10 1371.5,-30 1391.5,-30 1391.5,-10 1371.5,-10"/>
<text text-anchor="start" x="1395.2812" y="-15.4" font-family="sans-serif" font-size="14.00" fill="#000000"> &#160;Bootstrap</text>
<polygon fill="#fdb462" stroke="transparent" points="1468.5,-10 1468.5,-30 1488.5,-30 1488.5,-10 1468.5,-10"/>
<text text-anchor="start" x="1492.1732" y="-15.4" font-family="sans-serif" font-size="14.00" fill="#000000"> &#160;Providers</text>
<polygon fill="#fb8072" stroke="transparent" points="1564.5,-10 1564.5,-30 1584.5,-30 1584.5,-10 1564.5,-10"/>
<text text-anchor="start" x="1588.2258" y="-15.4" font-family="sans-serif" font-size="14.00" fill="#000000"> &#160;Exports</text>
<g id="clust1" class="cluster">
<title>cluster_AppModule</title>
<polygon fill="none" stroke="#000000" stroke-dasharray="1,5" points="8,-146 8,-344 816,-344 816,-146 8,-146"/>
</g>
<g id="clust2" class="cluster">
<title>cluster_AppModule_declarations</title>
<polygon fill="none" stroke="#000000" points="686,-154 686,-206 808,-206 808,-154 686,-154"/>
</g>
<g id="clust4" class="cluster">
<title>cluster_AppModule_imports</title>
<polygon fill="none" stroke="#000000" points="416,-154 416,-206 678,-206 678,-154 416,-154"/>
</g>
<g id="clust6" class="cluster">
<title>cluster_AppModule_bootstrap</title>
<polygon fill="none" stroke="#000000" points="361,-284 361,-336 485,-336 485,-284 361,-284"/>
</g>
<g id="clust7" class="cluster">
<title>cluster_AppModule_providers</title>
<polygon fill="none" stroke="#000000" points="16,-154 16,-206 408,-206 408,-154 16,-154"/>
</g>
<g id="clust14" class="cluster">
<title>cluster_DashboardModule</title>
<polygon fill="none" stroke="#000000" stroke-dasharray="1,5" points="824,-70 824,-206 1287,-206 1287,-70 824,-70"/>
</g>
<g id="clust15" class="cluster">
<title>cluster_DashboardModule_declarations</title>
<polygon fill="none" stroke="#000000" points="832,-78 832,-130 990,-130 990,-78 832,-78"/>
</g>
<g id="clust17" class="cluster">
<title>cluster_DashboardModule_imports</title>
<polygon fill="none" stroke="#000000" points="998,-78 998,-130 1279,-130 1279,-78 998,-78"/>
</g>
<g id="clust27" class="cluster">
<title>cluster_LayoutModule</title>
<polygon fill="none" stroke="#000000" stroke-dasharray="1,5" points="148,-70 148,-138 753,-138 753,-70 148,-70"/>
</g>
<g id="clust28" class="cluster">
<title>cluster_LayoutModule_declarations</title>
<polygon fill="none" stroke="#000000" points="324,-78 324,-130 745,-130 745,-78 324,-78"/>
</g>
<g id="clust32" class="cluster">
<title>cluster_LayoutModule_imports</title>
<polygon fill="none" stroke="#000000" points="156,-78 156,-130 316,-130 316,-78 156,-78"/>
</g>
<g id="clust42" class="cluster">
<title>cluster_LoginModule</title>
<polygon fill="none" stroke="#000000" stroke-dasharray="1,5" points="1569,-70 1569,-206 1877,-206 1877,-70 1569,-70"/>
</g>
<g id="clust43" class="cluster">
<title>cluster_LoginModule_declarations</title>
<polygon fill="none" stroke="#000000" points="1739,-78 1739,-130 1869,-130 1869,-78 1739,-78"/>
</g>
<g id="clust45" class="cluster">
<title>cluster_LoginModule_imports</title>
<polygon fill="none" stroke="#000000" points="1577,-78 1577,-130 1731,-130 1731,-78 1577,-78"/>
</g>
<g id="clust55" class="cluster">
<title>cluster_PatientModule</title>
<polygon fill="none" stroke="#000000" stroke-dasharray="1,5" points="1885,-70 1885,-206 2501,-206 2501,-70 1885,-70"/>
</g>
<g id="clust56" class="cluster">
<title>cluster_PatientModule_declarations</title>
<polygon fill="none" stroke="#000000" points="2061,-78 2061,-130 2493,-130 2493,-78 2061,-78"/>
</g>
<g id="clust60" class="cluster">
<title>cluster_PatientModule_imports</title>
<polygon fill="none" stroke="#000000" points="1893,-78 1893,-130 2053,-130 2053,-78 1893,-78"/>
</g>
<g id="clust76" class="cluster">
<title>cluster_StatModule</title>
<polygon fill="none" stroke="#000000" stroke-dasharray="1,5" points="1295,-146 1295,-214 1561,-214 1561,-146 1295,-146"/>
</g>
<g id="clust77" class="cluster">
<title>cluster_StatModule_declarations</title>
<polygon fill="none" stroke="#000000" points="1433,-154 1433,-206 1553,-206 1553,-154 1433,-154"/>
</g>
<g id="clust80" class="cluster">
<title>cluster_StatModule_exports</title>
<polygon fill="none" stroke="#000000" points="1303,-154 1303,-206 1425,-206 1425,-154 1303,-154"/>
</g>
<g id="clust83" class="cluster">
<title>cluster_UserModule</title>
<polygon fill="none" stroke="#000000" stroke-dasharray="1,5" points="2509,-70 2509,-206 2805,-206 2805,-70 2509,-70"/>
</g>
<g id="clust84" class="cluster">
<title>cluster_UserModule_declarations</title>
<polygon fill="none" stroke="#000000" points="2673,-78 2673,-130 2797,-130 2797,-78 2673,-78"/>
</g>
<g id="clust86" class="cluster">
<title>cluster_UserModule_imports</title>
<polygon fill="none" stroke="#000000" points="2517,-78 2517,-130 2665,-130 2665,-78 2517,-78"/>
</g>
<!-- AppComponent -->
<g id="node1" class="node">
<title>AppComponent</title>
<polygon fill="#ffffb3" stroke="#000000" points="799.9399,-198 694.0601,-198 694.0601,-162 799.9399,-162 799.9399,-198"/>
<text text-anchor="middle" x="747" y="-175.8" font-family="Times,serif" font-size="14.00" fill="#000000">AppComponent</text>
</g>
<!-- AppModule -->
<g id="node2" class="node">
<title>AppModule</title>
<polygon fill="#8dd3c7" stroke="#000000" points="464.6571,-263 461.6571,-267 440.6571,-267 437.6571,-263 381.3429,-263 381.3429,-227 464.6571,-227 464.6571,-263"/>
<text text-anchor="middle" x="423" y="-240.8" font-family="Times,serif" font-size="14.00" fill="#000000">AppModule</text>
</g>
<!-- AppComponent&#45;&gt;AppModule -->
<g id="edge1" class="edge">
<title>AppComponent&#45;&gt;AppModule</title>
<path fill="none" stroke="#000000" d="M747,-198.2843C747,-219.3211 747,-251 747,-251 747,-251 474.694,-251 474.694,-251"/>
<polygon fill="#000000" stroke="#000000" points="474.6941,-247.5001 464.694,-251 474.694,-254.5001 474.6941,-247.5001"/>
</g>
<!-- AppComponent  -->
<g id="node5" class="node">
<title>AppComponent </title>
<polygon fill="#80b1d3" stroke="#000000" points="477.439,-328 368.561,-328 368.561,-292 477.439,-292 477.439,-328"/>
<text text-anchor="middle" x="423" y="-305.8" font-family="Times,serif" font-size="14.00" fill="#000000">AppComponent </text>
</g>
<!-- AppModule&#45;&gt;AppComponent  -->
<g id="edge4" class="edge">
<title>AppModule&#45;&gt;AppComponent </title>
<path fill="none" stroke="#000000" stroke-dasharray="1,5" d="M423,-263.1061C423,-263.1061 423,-281.991 423,-281.991"/>
<polygon fill="#000000" stroke="#000000" points="419.5001,-281.9909 423,-291.991 426.5001,-281.991 419.5001,-281.9909"/>
</g>
<!-- AppRoutingModule -->
<g id="node3" class="node">
<title>AppRoutingModule</title>
<polygon fill="#8dd3c7" stroke="#000000" points="670.2744,-198 667.2744,-202 646.2744,-202 643.2744,-198 541.7256,-198 541.7256,-162 670.2744,-162 670.2744,-198"/>
<text text-anchor="middle" x="606" y="-175.8" font-family="Times,serif" font-size="14.00" fill="#000000">AppRoutingModule</text>
</g>
<!-- AppRoutingModule&#45;&gt;AppModule -->
<g id="edge2" class="edge">
<title>AppRoutingModule&#45;&gt;AppModule</title>
<path fill="none" stroke="#000000" d="M606,-198.0225C606,-215.3734 606,-239 606,-239 606,-239 474.9839,-239 474.9839,-239"/>
<polygon fill="#000000" stroke="#000000" points="474.9839,-235.5001 464.9839,-239 474.9839,-242.5001 474.9839,-235.5001"/>
</g>
<!-- LayoutModule -->
<g id="node4" class="node">
<title>LayoutModule</title>
<polygon fill="#8dd3c7" stroke="#000000" points="523.7078,-198 520.7078,-202 499.7078,-202 496.7078,-198 424.2922,-198 424.2922,-162 523.7078,-162 523.7078,-198"/>
<text text-anchor="middle" x="474" y="-175.8" font-family="Times,serif" font-size="14.00" fill="#000000">LayoutModule</text>
</g>
<!-- LayoutModule&#45;&gt;AppModule -->
<g id="edge3" class="edge">
<title>LayoutModule&#45;&gt;AppModule</title>
<path fill="none" stroke="#000000" d="M444.6122,-198.1061C444.6122,-198.1061 444.6122,-216.991 444.6122,-216.991"/>
<polygon fill="#000000" stroke="#000000" points="441.1123,-216.9909 444.6122,-226.991 448.1123,-216.991 441.1123,-216.9909"/>
</g>
<!-- Api -->
<g id="node6" class="node">
<title>Api</title>
<ellipse fill="#fdb462" stroke="#000000" cx="373" cy="-180" rx="27" ry="18"/>
<text text-anchor="middle" x="373" y="-175.8" font-family="Times,serif" font-size="14.00" fill="#000000">Api</text>
</g>
<!-- Api&#45;&gt;AppModule -->
<g id="edge5" class="edge">
<title>Api&#45;&gt;AppModule</title>
<path fill="none" stroke="#000000" d="M390.5859,-193.7848C390.5859,-193.7848 390.5859,-216.5475 390.5859,-216.5475"/>
<polygon fill="#000000" stroke="#000000" points="387.086,-216.5474 390.5859,-226.5475 394.086,-216.5475 387.086,-216.5474"/>
</g>
<!-- BaseUrlProvider -->
<g id="node7" class="node">
<title>BaseUrlProvider</title>
<ellipse fill="#fdb462" stroke="#000000" cx="252" cy="-180" rx="75.8586" ry="18"/>
<text text-anchor="middle" x="252" y="-175.8" font-family="Times,serif" font-size="14.00" fill="#000000">BaseUrlProvider</text>
</g>
<!-- BaseUrlProvider&#45;&gt;AppModule -->
<g id="edge6" class="edge">
<title>BaseUrlProvider&#45;&gt;AppModule</title>
<path fill="none" stroke="#000000" d="M252,-198.0225C252,-215.3734 252,-239 252,-239 252,-239 371.1687,-239 371.1687,-239"/>
<polygon fill="#000000" stroke="#000000" points="371.1687,-242.5001 381.1687,-239 371.1687,-235.5001 371.1687,-242.5001"/>
</g>
<!-- JwtInterceptor -->
<g id="node8" class="node">
<title>JwtInterceptor</title>
<ellipse fill="#fdb462" stroke="#000000" cx="91" cy="-180" rx="66.6094" ry="18"/>
<text text-anchor="middle" x="91" y="-175.8" font-family="Times,serif" font-size="14.00" fill="#000000">JwtInterceptor</text>
</g>
<!-- JwtInterceptor&#45;&gt;AppModule -->
<g id="edge7" class="edge">
<title>JwtInterceptor&#45;&gt;AppModule</title>
<path fill="none" stroke="#000000" d="M91,-198.2843C91,-219.3211 91,-251 91,-251 91,-251 371.2881,-251 371.2881,-251"/>
<polygon fill="#000000" stroke="#000000" points="371.2882,-254.5001 381.2881,-251 371.2881,-247.5001 371.2882,-254.5001"/>
</g>
<!-- DashboardComponent -->
<g id="node9" class="node">
<title>DashboardComponent</title>
<polygon fill="#ffffb3" stroke="#000000" points="981.9734,-122 840.0266,-122 840.0266,-86 981.9734,-86 981.9734,-122"/>
<text text-anchor="middle" x="911" y="-99.8" font-family="Times,serif" font-size="14.00" fill="#000000">DashboardComponent</text>
</g>
<!-- DashboardModule -->
<g id="node10" class="node">
<title>DashboardModule</title>
<polygon fill="#8dd3c7" stroke="#000000" points="1149.191,-198 1146.191,-202 1125.191,-202 1122.191,-198 1028.809,-198 1028.809,-162 1149.191,-162 1149.191,-198"/>
<text text-anchor="middle" x="1089" y="-175.8" font-family="Times,serif" font-size="14.00" fill="#000000">DashboardModule</text>
</g>
<!-- DashboardComponent&#45;&gt;DashboardModule -->
<g id="edge8" class="edge">
<title>DashboardComponent&#45;&gt;DashboardModule</title>
<path fill="none" stroke="#000000" d="M911,-122.0109C911,-144.4852 911,-180 911,-180 911,-180 1018.7373,-180 1018.7373,-180"/>
<polygon fill="#000000" stroke="#000000" points="1018.7374,-183.5001 1028.7373,-180 1018.7373,-176.5001 1018.7374,-183.5001"/>
</g>
<!-- DashboardRoutingModule -->
<g id="node11" class="node">
<title>DashboardRoutingModule</title>
<polygon fill="#8dd3c7" stroke="#000000" points="1171.8089,-122 1168.8089,-126 1147.8089,-126 1144.8089,-122 1006.1911,-122 1006.1911,-86 1171.8089,-86 1171.8089,-122"/>
<text text-anchor="middle" x="1089" y="-99.8" font-family="Times,serif" font-size="14.00" fill="#000000">DashboardRoutingModule</text>
</g>
<!-- DashboardRoutingModule&#45;&gt;DashboardModule -->
<g id="edge9" class="edge">
<title>DashboardRoutingModule&#45;&gt;DashboardModule</title>
<path fill="none" stroke="#000000" d="M1089,-122.0109C1089,-122.0109 1089,-151.855 1089,-151.855"/>
<polygon fill="#000000" stroke="#000000" points="1085.5001,-151.8549 1089,-161.855 1092.5001,-151.855 1085.5001,-151.8549"/>
</g>
<!-- StatModule -->
<g id="node12" class="node">
<title>StatModule</title>
<polygon fill="#8dd3c7" stroke="#000000" points="1270.8289,-122 1267.8289,-126 1246.8289,-126 1243.8289,-122 1189.1711,-122 1189.1711,-86 1270.8289,-86 1270.8289,-122"/>
<text text-anchor="middle" x="1230" y="-99.8" font-family="Times,serif" font-size="14.00" fill="#000000">StatModule</text>
</g>
<!-- StatModule&#45;&gt;DashboardModule -->
<g id="edge10" class="edge">
<title>StatModule&#45;&gt;DashboardModule</title>
<path fill="none" stroke="#000000" d="M1216.4453,-122.0267C1216.4453,-142.7672 1216.4453,-174 1216.4453,-174 1216.4453,-174 1159.3637,-174 1159.3637,-174"/>
<polygon fill="#000000" stroke="#000000" points="1159.3637,-170.5001 1149.3637,-174 1159.3636,-177.5001 1159.3637,-170.5001"/>
</g>
<!-- StatComponent  -->
<g id="node26" class="node">
<title>StatComponent </title>
<polygon fill="#fb8072" stroke="#000000" points="1417.1115,-198 1310.8885,-198 1310.8885,-162 1417.1115,-162 1417.1115,-198"/>
<text text-anchor="middle" x="1364" y="-175.8" font-family="Times,serif" font-size="14.00" fill="#000000">StatComponent </text>
</g>
<!-- StatModule&#45;&gt;StatComponent  -->
<g id="edge22" class="edge">
<title>StatModule&#45;&gt;StatComponent </title>
<path fill="none" stroke="#000000" stroke-dasharray="5,2" d="M1243.5547,-122.1985C1243.5547,-146.3563 1243.5547,-186 1243.5547,-186 1243.5547,-186 1300.8203,-186 1300.8203,-186"/>
<polygon fill="#000000" stroke="#000000" points="1300.8204,-189.5001 1310.8203,-186 1300.8203,-182.5001 1300.8204,-189.5001"/>
</g>
<!-- LayoutComponent -->
<g id="node13" class="node">
<title>LayoutComponent</title>
<polygon fill="#ffffb3" stroke="#000000" points="737.4902,-122 616.5098,-122 616.5098,-86 737.4902,-86 737.4902,-122"/>
<text text-anchor="middle" x="677" y="-99.8" font-family="Times,serif" font-size="14.00" fill="#000000">LayoutComponent</text>
</g>
<!-- LayoutComponent&#45;&gt;LayoutModule -->
<g id="edge11" class="edge">
<title>LayoutComponent&#45;&gt;LayoutModule</title>
<path fill="none" stroke="#000000" d="M643.446,-122.0439C643.446,-134.5633 643.446,-149 643.446,-149 643.446,-149 507.0533,-149 507.0533,-149 507.0533,-149 507.0533,-151.9672 507.0533,-151.9672"/>
<polygon fill="#000000" stroke="#000000" points="503.5534,-151.9671 507.0533,-161.9672 510.5534,-151.9672 503.5534,-151.9671"/>
</g>
<!-- SidebarComponent -->
<g id="node14" class="node">
<title>SidebarComponent</title>
<polygon fill="#ffffb3" stroke="#000000" points="598.0954,-122 473.9046,-122 473.9046,-86 598.0954,-86 598.0954,-122"/>
<text text-anchor="middle" x="536" y="-99.8" font-family="Times,serif" font-size="14.00" fill="#000000">SidebarComponent</text>
</g>
<!-- SidebarComponent&#45;&gt;LayoutModule -->
<g id="edge12" class="edge">
<title>SidebarComponent&#45;&gt;LayoutModule</title>
<path fill="none" stroke="#000000" d="M490.5028,-122.0109C490.5028,-122.0109 490.5028,-151.855 490.5028,-151.855"/>
<polygon fill="#000000" stroke="#000000" points="487.0029,-151.8549 490.5028,-161.855 494.0029,-151.855 487.0029,-151.8549"/>
</g>
<!-- TopnavComponent -->
<g id="node15" class="node">
<title>TopnavComponent</title>
<polygon fill="#ffffb3" stroke="#000000" points="456.0996,-122 331.9004,-122 331.9004,-86 456.0996,-86 456.0996,-122"/>
<text text-anchor="middle" x="394" y="-99.8" font-family="Times,serif" font-size="14.00" fill="#000000">TopnavComponent</text>
</g>
<!-- TopnavComponent&#45;&gt;LayoutModule -->
<g id="edge13" class="edge">
<title>TopnavComponent&#45;&gt;LayoutModule</title>
<path fill="none" stroke="#000000" d="M445.4986,-122.0109C445.4986,-122.0109 445.4986,-151.855 445.4986,-151.855"/>
<polygon fill="#000000" stroke="#000000" points="441.9987,-151.8549 445.4986,-161.855 448.9987,-151.855 441.9987,-151.8549"/>
</g>
<!-- LayoutRoutingModule -->
<g id="node16" class="node">
<title>LayoutRoutingModule</title>
<polygon fill="#8dd3c7" stroke="#000000" points="308.3258,-122 305.3258,-126 284.3258,-126 281.3258,-122 163.6742,-122 163.6742,-86 308.3258,-86 308.3258,-122"/>
<text text-anchor="middle" x="236" y="-99.8" font-family="Times,serif" font-size="14.00" fill="#000000">LayoutRoutingModule</text>
</g>
<!-- LayoutRoutingModule&#45;&gt;LayoutModule -->
<g id="edge14" class="edge">
<title>LayoutRoutingModule&#45;&gt;LayoutModule</title>
<path fill="none" stroke="#000000" d="M242.1167,-122.2434C242.1167,-129.4297 242.1167,-136 242.1167,-136 242.1167,-136 434.9474,-136 434.9474,-136 434.9474,-136 434.9474,-151.8495 434.9474,-151.8495"/>
<polygon fill="#000000" stroke="#000000" points="431.4475,-151.8494 434.9474,-161.8495 438.4475,-151.8495 431.4475,-151.8494"/>
</g>
<!-- LoginComponent -->
<g id="node17" class="node">
<title>LoginComponent</title>
<polygon fill="#ffffb3" stroke="#000000" points="1861.2758,-122 1746.7242,-122 1746.7242,-86 1861.2758,-86 1861.2758,-122"/>
<text text-anchor="middle" x="1804" y="-99.8" font-family="Times,serif" font-size="14.00" fill="#000000">LoginComponent</text>
</g>
<!-- LoginModule -->
<g id="node18" class="node">
<title>LoginModule</title>
<polygon fill="#8dd3c7" stroke="#000000" points="1775.493,-198 1772.493,-202 1751.493,-202 1748.493,-198 1682.507,-198 1682.507,-162 1775.493,-162 1775.493,-198"/>
<text text-anchor="middle" x="1729" y="-175.8" font-family="Times,serif" font-size="14.00" fill="#000000">LoginModule</text>
</g>
<!-- LoginComponent&#45;&gt;LoginModule -->
<g id="edge15" class="edge">
<title>LoginComponent&#45;&gt;LoginModule</title>
<path fill="none" stroke="#000000" d="M1761.0544,-122.0109C1761.0544,-122.0109 1761.0544,-151.855 1761.0544,-151.855"/>
<polygon fill="#000000" stroke="#000000" points="1757.5544,-151.8549 1761.0544,-161.855 1764.5544,-151.855 1757.5544,-151.8549"/>
</g>
<!-- LoginRoutingModule -->
<g id="node19" class="node">
<title>LoginRoutingModule</title>
<polygon fill="#8dd3c7" stroke="#000000" points="1723.1108,-122 1720.1108,-126 1699.1108,-126 1696.1108,-122 1584.8892,-122 1584.8892,-86 1723.1108,-86 1723.1108,-122"/>
<text text-anchor="middle" x="1654" y="-99.8" font-family="Times,serif" font-size="14.00" fill="#000000">LoginRoutingModule</text>
</g>
<!-- LoginRoutingModule&#45;&gt;LoginModule -->
<g id="edge16" class="edge">
<title>LoginRoutingModule&#45;&gt;LoginModule</title>
<path fill="none" stroke="#000000" d="M1702.7795,-122.0109C1702.7795,-122.0109 1702.7795,-151.855 1702.7795,-151.855"/>
<polygon fill="#000000" stroke="#000000" points="1699.2795,-151.8549 1702.7795,-161.855 1706.2795,-151.855 1699.2795,-151.8549"/>
</g>
<!-- ConfirmDialogComponent -->
<g id="node20" class="node">
<title>ConfirmDialogComponent</title>
<polygon fill="#ffffb3" stroke="#000000" points="2485.3738,-122 2318.6262,-122 2318.6262,-86 2485.3738,-86 2485.3738,-122"/>
<text text-anchor="middle" x="2402" y="-99.8" font-family="Times,serif" font-size="14.00" fill="#000000">ConfirmDialogComponent</text>
</g>
<!-- PatientModule -->
<g id="node23" class="node">
<title>PatientModule</title>
<polygon fill="#8dd3c7" stroke="#000000" points="2226.4344,-198 2223.4344,-202 2202.4344,-202 2199.4344,-198 2127.5656,-198 2127.5656,-162 2226.4344,-162 2226.4344,-198"/>
<text text-anchor="middle" x="2177" y="-175.8" font-family="Times,serif" font-size="14.00" fill="#000000">PatientModule</text>
</g>
<!-- ConfirmDialogComponent&#45;&gt;PatientModule -->
<g id="edge17" class="edge">
<title>ConfirmDialogComponent&#45;&gt;PatientModule</title>
<path fill="none" stroke="#000000" d="M2402,-122.0109C2402,-144.4852 2402,-180 2402,-180 2402,-180 2236.3772,-180 2236.3772,-180"/>
<polygon fill="#000000" stroke="#000000" points="2236.3772,-176.5001 2226.3772,-180 2236.3772,-183.5001 2236.3772,-176.5001"/>
</g>
<!-- PatientComponent -->
<g id="node21" class="node">
<title>PatientComponent</title>
<polygon fill="#ffffb3" stroke="#000000" points="2300.2162,-122 2179.7838,-122 2179.7838,-86 2300.2162,-86 2300.2162,-122"/>
<text text-anchor="middle" x="2240" y="-99.8" font-family="Times,serif" font-size="14.00" fill="#000000">PatientComponent</text>
</g>
<!-- PatientComponent&#45;&gt;PatientModule -->
<g id="edge18" class="edge">
<title>PatientComponent&#45;&gt;PatientModule</title>
<path fill="none" stroke="#000000" d="M2203.0544,-122.0109C2203.0544,-122.0109 2203.0544,-151.855 2203.0544,-151.855"/>
<polygon fill="#000000" stroke="#000000" points="2199.5544,-151.8549 2203.0544,-161.855 2206.5544,-151.855 2199.5544,-151.8549"/>
</g>
<!-- PatientDialog -->
<g id="node22" class="node">
<title>PatientDialog</title>
<polygon fill="#ffffb3" stroke="#000000" points="2161.486,-122 2068.514,-122 2068.514,-86 2161.486,-86 2161.486,-122"/>
<text text-anchor="middle" x="2115" y="-99.8" font-family="Times,serif" font-size="14.00" fill="#000000">PatientDialog</text>
</g>
<!-- PatientDialog&#45;&gt;PatientModule -->
<g id="edge19" class="edge">
<title>PatientDialog&#45;&gt;PatientModule</title>
<path fill="none" stroke="#000000" d="M2144.6381,-122.0109C2144.6381,-122.0109 2144.6381,-151.855 2144.6381,-151.855"/>
<polygon fill="#000000" stroke="#000000" points="2141.1382,-151.8549 2144.6381,-161.855 2148.1382,-151.855 2141.1382,-151.8549"/>
</g>
<!-- PatientRoutingModule -->
<g id="node24" class="node">
<title>PatientRoutingModule</title>
<polygon fill="#8dd3c7" stroke="#000000" points="2044.5519,-122 2041.5519,-126 2020.5519,-126 2017.5519,-122 1901.4481,-122 1901.4481,-86 2044.5519,-86 2044.5519,-122"/>
<text text-anchor="middle" x="1973" y="-99.8" font-family="Times,serif" font-size="14.00" fill="#000000">PatientRoutingModule</text>
</g>
<!-- PatientRoutingModule&#45;&gt;PatientModule -->
<g id="edge20" class="edge">
<title>PatientRoutingModule&#45;&gt;PatientModule</title>
<path fill="none" stroke="#000000" d="M1973,-122.0109C1973,-144.4852 1973,-180 1973,-180 1973,-180 2117.6173,-180 2117.6173,-180"/>
<polygon fill="#000000" stroke="#000000" points="2117.6173,-183.5001 2127.6173,-180 2117.6173,-176.5001 2117.6173,-183.5001"/>
</g>
<!-- StatComponent -->
<g id="node25" class="node">
<title>StatComponent</title>
<polygon fill="#ffffb3" stroke="#000000" points="1544.6109,-198 1441.3891,-198 1441.3891,-162 1544.6109,-162 1544.6109,-198"/>
<text text-anchor="middle" x="1493" y="-175.8" font-family="Times,serif" font-size="14.00" fill="#000000">StatComponent</text>
</g>
<!-- StatComponent&#45;&gt;StatModule -->
<g id="edge21" class="edge">
<title>StatComponent&#45;&gt;StatModule</title>
<path fill="none" stroke="#000000" d="M1493,-161.9891C1493,-139.5148 1493,-104 1493,-104 1493,-104 1280.8052,-104 1280.8052,-104"/>
<polygon fill="#000000" stroke="#000000" points="1280.8052,-100.5001 1270.8052,-104 1280.8052,-107.5001 1280.8052,-100.5001"/>
</g>
<!-- UserComponent -->
<g id="node27" class="node">
<title>UserComponent</title>
<polygon fill="#ffffb3" stroke="#000000" points="2788.7591,-122 2681.2409,-122 2681.2409,-86 2788.7591,-86 2788.7591,-122"/>
<text text-anchor="middle" x="2735" y="-99.8" font-family="Times,serif" font-size="14.00" fill="#000000">UserComponent</text>
</g>
<!-- UserModule -->
<g id="node28" class="node">
<title>UserModule</title>
<polygon fill="#8dd3c7" stroke="#000000" points="2705.9762,-198 2702.9762,-202 2681.9762,-202 2678.9762,-198 2620.0238,-198 2620.0238,-162 2705.9762,-162 2705.9762,-198"/>
<text text-anchor="middle" x="2663" y="-175.8" font-family="Times,serif" font-size="14.00" fill="#000000">UserModule</text>
</g>
<!-- UserComponent&#45;&gt;UserModule -->
<g id="edge23" class="edge">
<title>UserComponent&#45;&gt;UserModule</title>
<path fill="none" stroke="#000000" d="M2693.5544,-122.0109C2693.5544,-122.0109 2693.5544,-151.855 2693.5544,-151.855"/>
<polygon fill="#000000" stroke="#000000" points="2690.0544,-151.8549 2693.5544,-161.855 2697.0544,-151.855 2690.0544,-151.8549"/>
</g>
<!-- UserRoutingModule -->
<g id="node29" class="node">
<title>UserRoutingModule</title>
<polygon fill="#8dd3c7" stroke="#000000" points="2656.594,-122 2653.594,-126 2632.594,-126 2629.594,-122 2525.406,-122 2525.406,-86 2656.594,-86 2656.594,-122"/>
<text text-anchor="middle" x="2591" y="-99.8" font-family="Times,serif" font-size="14.00" fill="#000000">UserRoutingModule</text>
</g>
<!-- UserRoutingModule&#45;&gt;UserModule -->
<g id="edge24" class="edge">
<title>UserRoutingModule&#45;&gt;UserModule</title>
<path fill="none" stroke="#000000" d="M2638.2795,-122.0109C2638.2795,-122.0109 2638.2795,-151.855 2638.2795,-151.855"/>
<polygon fill="#000000" stroke="#000000" points="2634.7795,-151.8549 2638.2795,-161.855 2641.7795,-151.855 2634.7795,-151.8549"/>
</g>
</g>
</svg>
